<?xml version="1.0" encoding="utf-8"?>
<svg xmlns="http://www.w3.org/2000/svg" xmlns:xlink="http://www.w3.org/1999/xlink" width="600" height="400" viewBox="0 0 2400 1600">
<defs>
  <clipPath id="clip7200">
    <rect x="0" y="0" width="2400" height="1600"/>
  </clipPath>
</defs>
<polygon clip-path="url(#clip7200)" points="
0,1600 2400,1600 2400,0 0,0 
  " fill="#ffffff" fill-rule="evenodd" fill-opacity="1"/>
<defs>
  <clipPath id="clip7201">
    <rect x="480" y="0" width="1681" height="1600"/>
  </clipPath>
</defs>
<polygon clip-path="url(#clip7200)" points="
182.008,1487.47 2352.76,1487.47 2352.76,47.2441 182.008,47.2441 
  " fill="#ffffff" fill-rule="evenodd" fill-opacity="1"/>
<defs>
  <clipPath id="clip7202">
    <rect x="182" y="47" width="2172" height="1441"/>
  </clipPath>
</defs>
<polyline clip-path="url(#clip7202)" style="stroke:#000000; stroke-width:2; stroke-opacity:0.1; fill:none" points="
  239.34,1487.47 239.34,47.2441 
  "/>
<polyline clip-path="url(#clip7202)" style="stroke:#000000; stroke-width:2; stroke-opacity:0.1; fill:none" points="
  649.736,1487.47 649.736,47.2441 
  "/>
<polyline clip-path="url(#clip7202)" style="stroke:#000000; stroke-width:2; stroke-opacity:0.1; fill:none" points="
  1060.13,1487.47 1060.13,47.2441 
  "/>
<polyline clip-path="url(#clip7202)" style="stroke:#000000; stroke-width:2; stroke-opacity:0.1; fill:none" points="
  1470.53,1487.47 1470.53,47.2441 
  "/>
<polyline clip-path="url(#clip7202)" style="stroke:#000000; stroke-width:2; stroke-opacity:0.1; fill:none" points="
  1880.92,1487.47 1880.92,47.2441 
  "/>
<polyline clip-path="url(#clip7202)" style="stroke:#000000; stroke-width:2; stroke-opacity:0.1; fill:none" points="
  2291.32,1487.47 2291.32,47.2441 
  "/>
<polyline clip-path="url(#clip7202)" style="stroke:#000000; stroke-width:2; stroke-opacity:0.1; fill:none" points="
  182.008,1389.43 2352.76,1389.43 
  "/>
<polyline clip-path="url(#clip7202)" style="stroke:#000000; stroke-width:2; stroke-opacity:0.1; fill:none" points="
  182.008,1193.8 2352.76,1193.8 
  "/>
<polyline clip-path="url(#clip7202)" style="stroke:#000000; stroke-width:2; stroke-opacity:0.1; fill:none" points="
  182.008,998.176 2352.76,998.176 
  "/>
<polyline clip-path="url(#clip7202)" style="stroke:#000000; stroke-width:2; stroke-opacity:0.1; fill:none" points="
  182.008,802.549 2352.76,802.549 
  "/>
<polyline clip-path="url(#clip7202)" style="stroke:#000000; stroke-width:2; stroke-opacity:0.1; fill:none" points="
  182.008,606.923 2352.76,606.923 
  "/>
<polyline clip-path="url(#clip7202)" style="stroke:#000000; stroke-width:2; stroke-opacity:0.1; fill:none" points="
  182.008,411.296 2352.76,411.296 
  "/>
<polyline clip-path="url(#clip7202)" style="stroke:#000000; stroke-width:2; stroke-opacity:0.1; fill:none" points="
  182.008,215.67 2352.76,215.67 
  "/>
<polyline clip-path="url(#clip7200)" style="stroke:#000000; stroke-width:4; stroke-opacity:1; fill:none" points="
  182.008,1487.47 2352.76,1487.47 
  "/>
<polyline clip-path="url(#clip7200)" style="stroke:#000000; stroke-width:4; stroke-opacity:1; fill:none" points="
  182.008,1487.47 182.008,47.2441 
  "/>
<polyline clip-path="url(#clip7200)" style="stroke:#000000; stroke-width:4; stroke-opacity:1; fill:none" points="
  239.34,1487.47 239.34,1465.87 
  "/>
<polyline clip-path="url(#clip7200)" style="stroke:#000000; stroke-width:4; stroke-opacity:1; fill:none" points="
  649.736,1487.47 649.736,1465.87 
  "/>
<polyline clip-path="url(#clip7200)" style="stroke:#000000; stroke-width:4; stroke-opacity:1; fill:none" points="
  1060.13,1487.47 1060.13,1465.87 
  "/>
<polyline clip-path="url(#clip7200)" style="stroke:#000000; stroke-width:4; stroke-opacity:1; fill:none" points="
  1470.53,1487.47 1470.53,1465.87 
  "/>
<polyline clip-path="url(#clip7200)" style="stroke:#000000; stroke-width:4; stroke-opacity:1; fill:none" points="
  1880.92,1487.47 1880.92,1465.87 
  "/>
<polyline clip-path="url(#clip7200)" style="stroke:#000000; stroke-width:4; stroke-opacity:1; fill:none" points="
  2291.32,1487.47 2291.32,1465.87 
  "/>
<polyline clip-path="url(#clip7200)" style="stroke:#000000; stroke-width:4; stroke-opacity:1; fill:none" points="
  182.008,1389.43 214.569,1389.43 
  "/>
<polyline clip-path="url(#clip7200)" style="stroke:#000000; stroke-width:4; stroke-opacity:1; fill:none" points="
  182.008,1193.8 214.569,1193.8 
  "/>
<polyline clip-path="url(#clip7200)" style="stroke:#000000; stroke-width:4; stroke-opacity:1; fill:none" points="
  182.008,998.176 214.569,998.176 
  "/>
<polyline clip-path="url(#clip7200)" style="stroke:#000000; stroke-width:4; stroke-opacity:1; fill:none" points="
  182.008,802.549 214.569,802.549 
  "/>
<polyline clip-path="url(#clip7200)" style="stroke:#000000; stroke-width:4; stroke-opacity:1; fill:none" points="
  182.008,606.923 214.569,606.923 
  "/>
<polyline clip-path="url(#clip7200)" style="stroke:#000000; stroke-width:4; stroke-opacity:1; fill:none" points="
  182.008,411.296 214.569,411.296 
  "/>
<polyline clip-path="url(#clip7200)" style="stroke:#000000; stroke-width:4; stroke-opacity:1; fill:none" points="
  182.008,215.67 214.569,215.67 
  "/>
<g clip-path="url(#clip7200)">
<text style="fill:#000000; fill-opacity:1; font-family:Arial,Helvetica Neue,Helvetica,sans-serif; font-size:48px; text-anchor:middle;" transform="rotate(0, 239.34, 1541.47)" x="239.34" y="1541.47">0</text>
</g>
<g clip-path="url(#clip7200)">
<text style="fill:#000000; fill-opacity:1; font-family:Arial,Helvetica Neue,Helvetica,sans-serif; font-size:48px; text-anchor:middle;" transform="rotate(0, 649.736, 1541.47)" x="649.736" y="1541.47">100</text>
</g>
<g clip-path="url(#clip7200)">
<text style="fill:#000000; fill-opacity:1; font-family:Arial,Helvetica Neue,Helvetica,sans-serif; font-size:48px; text-anchor:middle;" transform="rotate(0, 1060.13, 1541.47)" x="1060.13" y="1541.47">200</text>
</g>
<g clip-path="url(#clip7200)">
<text style="fill:#000000; fill-opacity:1; font-family:Arial,Helvetica Neue,Helvetica,sans-serif; font-size:48px; text-anchor:middle;" transform="rotate(0, 1470.53, 1541.47)" x="1470.53" y="1541.47">300</text>
</g>
<g clip-path="url(#clip7200)">
<text style="fill:#000000; fill-opacity:1; font-family:Arial,Helvetica Neue,Helvetica,sans-serif; font-size:48px; text-anchor:middle;" transform="rotate(0, 1880.92, 1541.47)" x="1880.92" y="1541.47">400</text>
</g>
<g clip-path="url(#clip7200)">
<text style="fill:#000000; fill-opacity:1; font-family:Arial,Helvetica Neue,Helvetica,sans-serif; font-size:48px; text-anchor:middle;" transform="rotate(0, 2291.32, 1541.47)" x="2291.32" y="1541.47">500</text>
</g>
<g clip-path="url(#clip7200)">
<text style="fill:#000000; fill-opacity:1; font-family:Arial,Helvetica Neue,Helvetica,sans-serif; font-size:48px; text-anchor:end;" transform="rotate(0, 158.008, 1406.93)" x="158.008" y="1406.93">-2.5</text>
</g>
<g clip-path="url(#clip7200)">
<text style="fill:#000000; fill-opacity:1; font-family:Arial,Helvetica Neue,Helvetica,sans-serif; font-size:48px; text-anchor:end;" transform="rotate(0, 158.008, 1211.3)" x="158.008" y="1211.3">0.0</text>
</g>
<g clip-path="url(#clip7200)">
<text style="fill:#000000; fill-opacity:1; font-family:Arial,Helvetica Neue,Helvetica,sans-serif; font-size:48px; text-anchor:end;" transform="rotate(0, 158.008, 1015.68)" x="158.008" y="1015.68">2.5</text>
</g>
<g clip-path="url(#clip7200)">
<text style="fill:#000000; fill-opacity:1; font-family:Arial,Helvetica Neue,Helvetica,sans-serif; font-size:48px; text-anchor:end;" transform="rotate(0, 158.008, 820.049)" x="158.008" y="820.049">5.0</text>
</g>
<g clip-path="url(#clip7200)">
<text style="fill:#000000; fill-opacity:1; font-family:Arial,Helvetica Neue,Helvetica,sans-serif; font-size:48px; text-anchor:end;" transform="rotate(0, 158.008, 624.423)" x="158.008" y="624.423">7.5</text>
</g>
<g clip-path="url(#clip7200)">
<text style="fill:#000000; fill-opacity:1; font-family:Arial,Helvetica Neue,Helvetica,sans-serif; font-size:48px; text-anchor:end;" transform="rotate(0, 158.008, 428.796)" x="158.008" y="428.796">10.0</text>
</g>
<g clip-path="url(#clip7200)">
<text style="fill:#000000; fill-opacity:1; font-family:Arial,Helvetica Neue,Helvetica,sans-serif; font-size:48px; text-anchor:end;" transform="rotate(0, 158.008, 233.17)" x="158.008" y="233.17">12.5</text>
</g>
<polyline clip-path="url(#clip7202)" style="stroke:#009af9; stroke-width:4; stroke-opacity:1; fill:none" points="
  243.444,1155.81 247.548,1127.04 251.652,1148.59 255.756,1160.6 259.86,1147.86 263.964,1146.35 268.068,1143.48 272.172,1154.97 276.276,1152.77 280.38,1152.99 
  284.484,1116.17 288.588,1080.82 292.692,1047.13 296.796,1012.93 300.9,1046.55 305.004,1020.85 309.108,1031.24 313.212,1045 317.316,1027.98 321.42,1008.55 
  325.523,987.548 329.627,1006 333.731,1033.38 337.835,1004.73 341.939,1023.69 346.043,1006.81 350.147,1023.83 354.251,1013.05 358.355,1022.41 362.459,1011.78 
  366.563,1032.04 370.667,1047.91 374.771,1030.6 378.875,1003.92 382.979,1004.61 387.083,1017.63 391.187,1009.24 395.291,1009.55 399.395,1041.25 403.499,1027.94 
  407.603,999.418 411.707,972.409 415.811,992.919 419.915,991.422 424.018,1020.47 428.122,993.149 432.226,972.812 436.33,973.372 440.434,973.73 444.538,1010.81 
  448.642,997.354 452.746,978.989 456.85,1005.63 460.954,975.155 465.058,991.485 469.162,987.428 473.266,952.255 477.37,987.737 481.474,954.86 485.578,961.907 
  489.682,964.29 493.786,992.481 497.89,988.547 501.994,984.469 506.098,1005.33 510.202,1043.78 514.306,1081.16 518.41,1054.47 522.514,1052.98 526.617,1068.97 
  530.721,1102.45 534.825,1081.5 538.929,1110.52 543.033,1129.14 547.137,1114.52 551.241,1086.46 555.345,1087.43 559.449,1112.71 563.553,1123.96 567.657,1105.91 
  571.761,1090.59 575.865,1104.21 579.969,1134.85 584.073,1129.2 588.177,1122.56 592.281,1158.83 596.385,1148.27 600.489,1124.76 604.593,1119.33 608.697,1148.09 
  612.801,1119.64 616.905,1106.32 621.009,1103.61 625.112,1103.06 629.216,1067.78 633.32,1104.52 637.424,1098.16 641.528,1080.32 645.632,1055.57 649.736,1077.13 
  653.84,1066.26 657.944,1061.82 662.048,1084.93 666.152,1116.49 670.256,1103.55 674.36,1072.64 678.464,1094.51 682.568,1057.61 686.672,1083.67 690.776,1048.84 
  694.88,1045.29 698.984,1052.79 703.088,1067.87 707.192,1083.25 711.296,1085.72 715.4,1088.65 719.504,1109.82 723.607,1091.65 727.711,1118.98 731.815,1082.77 
  735.919,1061.87 740.023,1066.54 744.127,1049.19 748.231,1015.64 752.335,1017.11 756.439,1000.2 760.543,984.241 764.647,977.149 768.751,985.465 772.855,1003.17 
  776.959,975.583 781.063,979.745 785.167,948.118 789.271,978.071 793.375,943.736 797.479,969.632 801.583,980.179 805.687,960.164 809.791,937.104 813.895,967.552 
  817.999,947.713 822.102,924.823 826.206,910.583 830.31,874.703 834.414,864.928 838.518,835.879 842.622,838.913 846.726,826.348 850.83,801.854 854.934,774.359 
  859.038,760.904 863.142,750.503 867.246,719.625 871.35,726.997 875.454,707.548 879.558,681.674 883.662,679.025 887.766,710.93 891.87,741.055 895.974,729.728 
  900.078,743.534 904.182,716.322 908.286,723.309 912.39,740.562 916.494,760.06 920.597,766.928 924.701,782.522 928.805,743.863 932.909,745.045 937.013,723.747 
  941.117,739.645 945.221,734.212 949.325,712.936 953.429,682.736 957.533,679.939 961.637,685.892 965.741,701.283 969.845,735.035 973.949,772.037 978.053,802.88 
  982.157,793.283 986.261,758.709 990.365,726.903 994.469,743.639 998.573,762.884 1002.68,766.1 1006.78,749.235 1010.88,736.879 1014.99,729.58 1019.09,754.873 
  1023.2,755.666 1027.3,784.762 1031.4,746.651 1035.51,765.751 1039.61,753.884 1043.72,777.652 1047.82,786.864 1051.92,775.021 1056.03,763.234 1060.13,790.846 
  1064.24,806.916 1068.34,811.91 1072.44,809.034 1076.55,794.313 1080.65,803.625 1084.76,781.578 1088.86,757.155 1092.96,732.281 1097.07,715.506 1101.17,723.97 
  1105.28,741.778 1109.38,770.731 1113.48,776.115 1117.59,796.942 1121.69,773.463 1125.8,758.157 1129.9,757.285 1134,764.889 1138.11,803.085 1142.21,833.723 
  1146.32,804.538 1150.42,815.507 1154.52,793.488 1158.63,770.308 1162.73,762.576 1166.83,726.921 1170.94,744.627 1175.04,746.417 1179.15,773.501 1183.25,752.015 
  1187.35,761.337 1191.46,731.065 1195.56,700.418 1199.67,736.601 1203.77,737.017 1207.87,749.809 1211.98,710.738 1216.08,705.743 1220.19,726.795 1224.29,723.538 
  1228.39,748.287 1232.5,736.744 1236.6,770.991 1240.71,774.216 1244.81,794.669 1248.91,791.419 1253.02,811.551 1257.12,787.688 1261.23,763.657 1265.33,793.746 
  1269.43,801.451 1273.54,780.586 1277.64,759.31 1281.75,797.698 1285.85,824.224 1289.95,838.098 1294.06,802.113 1298.16,828.508 1302.27,826.902 1306.37,791.112 
  1310.47,756.837 1314.58,792.765 1318.68,794.885 1322.79,762.317 1326.89,798.77 1330.99,792.705 1335.1,797.114 1339.2,778.312 1343.31,812.127 1347.41,831.334 
  1351.51,867.358 1355.62,842.903 1359.72,880.941 1363.83,897.413 1367.93,862.912 1372.03,868.908 1376.14,859.374 1380.24,862.606 1384.34,872.87 1388.45,838.928 
  1392.55,818.453 1396.66,790.077 1400.76,827.447 1404.86,836.183 1408.97,807.332 1413.07,819.643 1417.18,820.084 1421.28,814.065 1425.38,795.223 1429.49,807.454 
  1433.59,842.21 1437.7,873.021 1441.8,846.186 1445.9,808.385 1450.01,816.07 1454.11,846.044 1458.22,838.706 1462.32,859.648 1466.42,892.934 1470.53,857.444 
  1474.63,831.366 1478.74,866.278 1482.84,860.912 1486.94,846.666 1491.05,846.418 1495.15,847.353 1499.26,818.667 1503.36,798.464 1507.46,800.254 1511.57,810.492 
  1515.67,827.351 1519.78,848.942 1523.88,833.556 1527.98,813.787 1532.09,792.177 1536.19,756.474 1540.3,722.387 1544.4,740.035 1548.5,702.866 1552.61,691.733 
  1556.71,680.559 1560.82,684.2 1564.92,674.494 1569.02,693.839 1573.13,685.98 1577.23,708.024 1581.33,721.465 1585.44,705.593 1589.54,707.016 1593.65,743.976 
  1597.75,728.862 1601.85,752.133 1605.96,724.621 1610.06,724.886 1614.17,692.39 1618.27,674.453 1622.37,703.677 1626.48,738.787 1630.58,699.927 1634.69,731.821 
  1638.79,762.631 1642.89,766.456 1647,770.581 1651.1,751.707 1655.21,749.437 1659.31,752.631 1663.41,741.816 1667.52,710.2 1671.62,710.385 1675.73,745.425 
  1679.83,711.849 1683.93,746.867 1688.04,775.679 1692.14,775.066 1696.25,806.558 1700.35,788.071 1704.45,781.995 1708.56,751.046 1712.66,783.5 1716.77,753.105 
  1720.87,786.572 1724.97,818.87 1729.08,855.661 1733.18,867.022 1737.29,876.313 1741.39,871.538 1745.49,886.523 1749.6,898.31 1753.7,872.042 1757.81,908.768 
  1761.91,876.627 1766.01,851.579 1770.12,853.438 1774.22,880.619 1778.32,891.992 1782.43,873.58 1786.53,895.732 1790.64,866.525 1794.74,861.424 1798.84,839.905 
  1802.95,864.676 1807.05,832.445 1811.16,838.526 1815.26,820.056 1819.36,840.826 1823.47,872.064 1827.57,870.904 1831.68,836.236 1835.78,874.365 1839.88,905.855 
  1843.99,907.546 1848.09,906.485 1852.2,892.168 1856.3,891.138 1860.4,879.288 1864.51,913.168 1868.61,912.585 1872.72,875.131 1876.82,902.141 1880.92,898.951 
  1885.03,883.863 1889.13,913.379 1893.24,933.261 1897.34,895.534 1901.44,887.677 1905.55,862.519 1909.65,874.696 1913.76,896.964 1917.86,896.679 1921.96,927.349 
  1926.07,890.328 1930.17,864.244 1934.28,893.828 1938.38,876.363 1942.48,847.672 1946.59,834.942 1950.69,827.822 1954.8,800.373 1958.9,800.292 1963,828.413 
  1967.11,796.497 1971.21,827.011 1975.31,854.909 1979.42,853.813 1983.52,817.107 1987.63,835.251 1991.73,825.392 1995.83,837.563 1999.94,854.882 2004.04,865.863 
  2008.15,895.266 2012.25,922.233 2016.35,931.321 2020.46,952.905 2024.56,920.787 2028.67,919.55 2032.77,923.754 2036.87,945.568 2040.98,951.57 2045.08,917.939 
  2049.19,917.25 2053.29,950.422 2057.39,948.988 2061.5,966.992 2065.6,980.777 2069.71,986.987 2073.81,965.537 2077.91,981.824 2082.02,958.059 2086.12,973.067 
  2090.23,939.484 2094.33,931.605 2098.43,954.072 2102.54,968.836 2106.64,973.01 2110.75,1002.85 2114.85,1041.34 2118.95,1022.48 2123.06,1025.32 2127.16,1008 
  2131.27,998.919 2135.37,987.157 2139.47,964.786 2143.58,930.763 2147.68,931.669 2151.79,927.126 2155.89,889.941 2159.99,852.654 2164.1,852.351 2168.2,886.171 
  2172.3,880.047 2176.41,867.281 2180.51,901.446 2184.62,919.085 2188.72,896.803 2192.82,875.183 2196.93,861.013 2201.03,879.147 2205.14,854.267 2209.24,823.05 
  2213.34,801.009 2217.45,802.376 2221.55,776 2225.66,784.159 2229.76,819.101 2233.86,790.661 2237.97,784.507 2242.07,797.568 2246.18,762.192 2250.28,761.193 
  2254.38,736.747 2258.49,698.884 2262.59,709.669 2266.7,729.973 2270.8,735.711 2274.9,728.614 2279.01,712.239 2283.11,679.264 2287.22,692.917 2291.32,703.008 
  
  "/>
<polyline clip-path="url(#clip7202)" style="stroke:#e26f46; stroke-width:4; stroke-opacity:1; fill:none" points="
  243.444,1160.79 247.548,1164.9 251.652,1150.19 255.756,1160.42 259.86,1173.49 263.964,1142.58 268.068,1153.81 272.172,1148.14 276.276,1180.26 280.38,1186.42 
  284.484,1217.38 288.588,1247.96 292.692,1256.8 296.796,1257.67 300.9,1277.56 305.004,1252.06 309.108,1218.7 313.212,1219.51 317.316,1209.01 321.42,1197.6 
  325.523,1216.22 329.627,1250.71 333.731,1281.86 337.835,1294.63 341.939,1326.02 346.043,1329.83 350.147,1292.58 354.251,1305.47 358.355,1273.49 362.459,1272 
  366.563,1297.39 370.667,1301.22 374.771,1303.98 378.875,1340.91 382.979,1342.38 387.083,1307.27 391.187,1293.27 395.291,1265.43 399.395,1231.08 403.499,1232.95 
  407.603,1236.12 411.707,1237.19 415.811,1240.83 419.915,1272.9 424.018,1305.26 428.122,1279.83 432.226,1263.86 436.33,1235.03 440.434,1217.36 444.538,1220.1 
  448.642,1222.08 452.746,1249.07 456.85,1213.53 460.954,1183.9 465.058,1179.22 469.162,1213.21 473.266,1236.77 477.37,1263.78 481.474,1260.51 485.578,1253.31 
  489.682,1273.87 493.786,1268.92 497.89,1292.38 501.994,1258.77 506.098,1236.7 510.202,1232.69 514.306,1206.86 518.41,1203.57 522.514,1230.84 526.617,1192.07 
  530.721,1173.62 534.825,1202.75 538.929,1214.58 543.033,1227.23 547.137,1201.37 551.241,1162.58 555.345,1176.18 559.449,1149.43 563.553,1156.08 567.657,1127.62 
  571.761,1097.85 575.865,1114.55 579.969,1086.17 584.073,1059.42 588.177,1089.38 592.281,1099.16 596.385,1069.44 600.489,1079.92 604.593,1086.23 608.697,1123.55 
  612.801,1141.34 616.905,1129.65 621.009,1092.98 625.112,1056.05 629.216,1089.48 633.32,1110.74 637.424,1110.04 641.528,1137.35 645.632,1175.33 649.736,1139.87 
  653.84,1133.01 657.944,1159.94 662.048,1147.48 666.152,1161.88 670.256,1180 674.36,1185.51 678.464,1201.8 682.568,1199.41 686.672,1187.87 690.776,1210.93 
  694.88,1202.05 698.984,1211.52 703.088,1237.97 707.192,1250.96 711.296,1252.01 715.4,1265.95 719.504,1239.23 723.607,1225.6 727.711,1249.03 731.815,1257.01 
  735.919,1264.9 740.023,1284.55 744.127,1288.18 748.231,1258 752.335,1292.97 756.439,1301.57 760.543,1293.38 764.647,1256.84 768.751,1230.98 772.855,1197.5 
  776.959,1184.84 781.063,1201.6 785.167,1185.47 789.271,1150.06 793.375,1153.67 797.479,1185.07 801.583,1181.25 805.687,1190.47 809.791,1226.67 813.895,1221.4 
  817.999,1246.49 822.102,1275.68 826.206,1299.03 830.31,1301.63 834.414,1331.33 838.518,1307.01 842.622,1320.47 846.726,1359.3 850.83,1353 854.934,1359.93 
  859.038,1334.42 863.142,1352.83 867.246,1343.94 871.35,1364.25 875.454,1369.39 879.558,1398.02 883.662,1400.77 887.766,1413.01 891.87,1446.71 895.974,1446.1 
  900.078,1416.64 904.182,1396.14 908.286,1357.44 912.39,1353.06 916.494,1330.13 920.597,1353.71 924.701,1328.19 928.805,1325.29 932.909,1333.7 937.013,1362.48 
  941.117,1380.2 945.221,1387.63 949.325,1362.75 953.429,1349.19 957.533,1323.9 961.637,1309.4 965.741,1290.59 969.845,1267.03 973.949,1282.76 978.053,1271.1 
  982.157,1247.98 986.261,1278.55 990.365,1252.7 994.469,1249.36 998.573,1237.96 1002.68,1267.79 1006.78,1255.35 1010.88,1244.26 1014.99,1242.98 1019.09,1213.53 
  1023.2,1188.35 1027.3,1152.8 1031.4,1168.18 1035.51,1181.88 1039.61,1200.02 1043.72,1212.39 1047.82,1242.05 1051.92,1269.6 1056.03,1304.37 1060.13,1286.38 
  1064.24,1305.35 1068.34,1296.65 1072.44,1308.48 1076.55,1294.5 1080.65,1304.4 1084.76,1339.08 1088.86,1343.64 1092.96,1363.44 1097.07,1357.63 1101.17,1328.17 
  1105.28,1361.28 1109.38,1326.87 1113.48,1294.6 1117.59,1321.59 1121.69,1355.84 1125.8,1382.99 1129.9,1394.92 1134,1368.23 1138.11,1340.52 1142.21,1318.52 
  1146.32,1286.24 1150.42,1256.93 1154.52,1224.06 1158.63,1239.19 1162.73,1217.83 1166.83,1256.82 1170.94,1259.71 1175.04,1237.71 1179.15,1220.16 1183.25,1223.32 
  1187.35,1202.39 1191.46,1175.21 1195.56,1157.24 1199.67,1147.01 1203.77,1108.04 1207.87,1092.39 1211.98,1065.77 1216.08,1034.29 1220.19,1056.49 1224.29,1023.63 
  1228.39,1055.97 1232.5,1077.21 1236.6,1047.72 1240.71,1032.54 1244.81,1017.07 1248.91,1018.61 1253.02,1012.56 1257.12,991.163 1261.23,967.718 1265.33,972.54 
  1269.43,978.82 1273.54,998.742 1277.64,978.846 1281.75,989.191 1285.85,1018.48 1289.95,1028.83 1294.06,1056.63 1298.16,1033.87 1302.27,1032.16 1306.37,1030.41 
  1310.47,1008.76 1314.58,1025.57 1318.68,1005.84 1322.79,972.036 1326.89,998.514 1330.99,1028.21 1335.1,998.6 1339.2,991.033 1343.31,1005.28 1347.41,966.358 
  1351.51,954.991 1355.62,919.968 1359.72,955.032 1363.83,939.594 1367.93,926.185 1372.03,889.837 1376.14,891.812 1380.24,903.184 1384.34,886.575 1388.45,919.199 
  1392.55,955.066 1396.66,981.693 1400.76,958.761 1404.86,931.456 1408.97,944.047 1413.07,952.502 1417.18,946.928 1421.28,984.804 1425.38,953.727 1429.49,949.775 
  1433.59,963.468 1437.7,974.363 1441.8,1010.85 1445.9,1025.44 1450.01,1038.24 1454.11,1006.25 1458.22,1024.98 1462.32,1057.24 1466.42,1049.95 1470.53,1026.2 
  1474.63,1049.64 1478.74,1062.22 1482.84,1032.7 1486.94,1000.77 1491.05,1033.56 1495.15,1016.86 1499.26,978.586 1503.36,999.649 1507.46,1000.18 1511.57,1007.06 
  1515.67,974.563 1519.78,948.111 1523.88,969.692 1527.98,1000.72 1532.09,1022.84 1536.19,988.067 1540.3,962.2 1544.4,950.998 1548.5,931.526 1552.61,926.769 
  1556.71,900.425 1560.82,898.96 1564.92,897.719 1569.02,920.535 1573.13,906.085 1577.23,902.847 1581.33,879.434 1585.44,873.402 1589.54,853.375 1593.65,871.428 
  1597.75,837.713 1601.85,846.48 1605.96,834.624 1610.06,825.345 1614.17,811.877 1618.27,816.877 1622.37,779.709 1626.48,768.272 1630.58,780.066 1634.69,751.23 
  1638.79,774.775 1642.89,804.704 1647,809.881 1651.1,823.551 1655.21,834.673 1659.31,845.454 1663.41,847.146 1667.52,851.438 1671.62,837.512 1675.73,801.528 
  1679.83,791.746 1683.93,821.216 1688.04,797.988 1692.14,790.54 1696.25,770.703 1700.35,747.628 1704.45,732.679 1708.56,751.012 1712.66,714.262 1716.77,741.392 
  1720.87,719.805 1724.97,730.864 1729.08,724.008 1733.18,690.317 1737.29,660.905 1741.39,662.151 1745.49,625.272 1749.6,605.88 1753.7,599.562 1757.81,613.645 
  1761.91,614.359 1766.01,643.092 1770.12,608.802 1774.22,637.894 1778.32,660.012 1782.43,648.804 1786.53,630.957 1790.64,667.034 1794.74,675.296 1798.84,642.316 
  1802.95,617.107 1807.05,629.634 1811.16,635.986 1815.26,614.353 1819.36,580.428 1823.47,598.424 1827.57,596.245 1831.68,600.288 1835.78,625.245 1839.88,632.88 
  1843.99,608.448 1848.09,636.581 1852.2,627.248 1856.3,657.613 1860.4,654.892 1864.51,625.634 1868.61,597.834 1872.72,571.88 1876.82,567.012 1880.92,535.665 
  1885.03,503.66 1889.13,513 1893.24,505.266 1897.34,494.432 1901.44,483.384 1905.55,498.032 1909.65,508.716 1913.76,475.474 1917.86,481.446 1921.96,502.063 
  1926.07,479.024 1930.17,465.612 1934.28,462.536 1938.38,460.365 1942.48,459.091 1946.59,429.828 1950.69,442.557 1954.8,417.884 1958.9,387.412 1963,388.629 
  1967.11,414.129 1971.21,394.434 1975.31,375.993 1979.42,356.943 1983.52,333.057 1987.63,323.832 1991.73,288.117 1995.83,316.687 1999.94,340.879 2004.04,304.383 
  2008.15,336.073 2012.25,298.074 2016.35,280.66 2020.46,257.66 2024.56,287.261 2028.67,309.532 2032.77,296.445 2036.87,257.428 2040.98,239.729 2045.08,215.461 
  2049.19,215.344 2053.29,249.491 2057.39,256.727 2061.5,227.327 2065.6,261.681 2069.71,246.478 2073.81,213.321 2077.91,208.887 2082.02,230.417 2086.12,192.909 
  2090.23,163.084 2094.33,175.915 2098.43,141.223 2102.54,104.521 2106.64,88.0053 2110.75,124.84 2114.85,146.975 2118.95,147.737 2123.06,160.155 2127.16,155.2 
  2131.27,147.469 2135.37,162.87 2139.47,132.107 2143.58,170.525 2147.68,189.094 2151.79,170.709 2155.89,156.041 2159.99,140.121 2164.1,176.837 2168.2,174.954 
  2172.3,190.635 2176.41,173.99 2180.51,165.19 2184.62,193.087 2188.72,223.41 2192.82,212.859 2196.93,232.783 2201.03,194.885 2205.14,221.063 2209.24,228.359 
  2213.34,221.374 2217.45,257.273 2221.55,263.313 2225.66,234.691 2229.76,256.377 2233.86,256.867 2237.97,293.422 2242.07,316.156 2246.18,277.43 2250.28,303.481 
  2254.38,306.165 2258.49,331.741 2262.59,331.047 2266.7,329.28 2270.8,290.99 2274.9,305.191 2279.01,310.755 2283.11,325.351 2287.22,359.307 2291.32,332.267 
  
  "/>
<polygon clip-path="url(#clip7200)" points="
1989.93,312.204 2280.76,312.204 2280.76,130.764 1989.93,130.764 
  " fill="#ffffff" fill-rule="evenodd" fill-opacity="1"/>
<polyline clip-path="url(#clip7200)" style="stroke:#000000; stroke-width:4; stroke-opacity:1; fill:none" points="
  1989.93,312.204 2280.76,312.204 2280.76,130.764 1989.93,130.764 1989.93,312.204 
  "/>
<polyline clip-path="url(#clip7200)" style="stroke:#009af9; stroke-width:4; stroke-opacity:1; fill:none" points="
  2013.93,191.244 2157.93,191.244 
  "/>
<g clip-path="url(#clip7200)">
<text style="fill:#000000; fill-opacity:1; font-family:Arial,Helvetica Neue,Helvetica,sans-serif; font-size:48px; text-anchor:start;" transform="rotate(0, 2181.93, 208.744)" x="2181.93" y="208.744">y1</text>
</g>
<polyline clip-path="url(#clip7200)" style="stroke:#e26f46; stroke-width:4; stroke-opacity:1; fill:none" points="
  2013.93,251.724 2157.93,251.724 
  "/>
<g clip-path="url(#clip7200)">
<text style="fill:#000000; fill-opacity:1; font-family:Arial,Helvetica Neue,Helvetica,sans-serif; font-size:48px; text-anchor:start;" transform="rotate(0, 2181.93, 269.224)" x="2181.93" y="269.224">y2</text>
</g>
</svg>
